<svg width="800" height="800" viewBox="0 0 73 73" xmlns="http://www.w3.org/2000/svg"><g fill="none" fill-rule="nonzero"><rect x="-1" y="-1" width="71" height="71" rx="14" transform="translate(2 2)" fill="#FFF" stroke="#134514" stroke-width="2"/><path d="m37.494 61.728-1.348-.46s.165-6.875-2.303-7.368c-1.644-1.908.264-80.918 6.185-.264 0 0-2.04 1.02-2.402 2.763-.395 1.711-.132 5.33-.132 5.33z" fill="#A6A385"/><path d="M38.218 55.084s11.81-7.763 9.046-23.914c-2.664-11.743-8.947-15.591-9.638-17.071-.756-1.053-1.48-2.895-1.48-2.895l.494 32.663c0 .033-1.02 10 1.579 11.217" fill="#499D4A"/><path d="M35.456 55.511S24.37 47.946 25.028 34.624c.625-13.322 8.454-19.867 9.967-21.052.987-1.052 1.02-1.447 1.085-2.5.691 1.48.56 22.138.658 24.572.296 9.374-.526 18.091-1.282 19.867z" fill="#58AA50"/></g></svg>