<svg width="800" height="800" viewBox="0 0 73 73" xmlns="http://www.w3.org/2000/svg"><g fill="none" fill-rule="evenodd"><rect x="-1" y="-1" width="71" height="71" rx="14" transform="translate(2 2)" fill="#FFF" fill-rule="nonzero" stroke="#013247" stroke-width="2"/><g fill="#00618A"><path d="M55.669 49.848c-2.422-.065-4.271.16-5.852.827-.45.19-1.166.194-1.24.757.248.259.286.645.482.964.378.61 1.015 1.43 1.584 1.859.621.469 1.262.97 1.928 1.377 1.185.722 2.508 1.135 3.649 1.859.672.426 1.34.964 1.996 1.445.324.238.542.609.964.758v-.069c-.222-.282-.279-.67-.482-.964l-.895-.895c-.875-1.162-1.986-2.182-3.167-3.03-.942-.675-3.05-1.588-3.442-2.684l-.07-.07c.668-.074 1.45-.316 2.066-.481 1.036-.278 1.96-.206 3.03-.482l1.446-.413v-.276c-.54-.554-.926-1.288-1.515-1.79-1.542-1.312-3.225-2.624-4.957-3.718-.961-.606-2.149-1-3.167-1.514-.343-.173-.945-.263-1.171-.551-.535-.682-.826-1.547-1.239-2.341a88.479 88.479 0 0 1-2.478-5.233c-.523-1.194-.864-2.371-1.515-3.442-3.126-5.14-6.491-8.242-11.704-11.291-1.11-.649-2.445-.905-3.856-1.24l-2.272-.137c-.462-.194-.943-.76-1.377-1.033-1.726-1.091-6.156-3.464-7.435-.344-.807 1.969 1.207 3.89 1.928 4.888.505.7 1.153 1.485 1.514 2.272.238.517.279 1.036.482 1.584.5 1.348.936 2.815 1.584 4.062.327.63.688 1.295 1.101 1.859.254.346.689.498.757 1.032-.425.595-.449 1.519-.688 2.272-1.076 3.393-.67 7.61.895 10.121.48.771 1.612 2.424 3.167 1.79 1.36-.554 1.057-2.271 1.446-3.786.088-.344.034-.597.206-.827v.07c.414.825.827 1.652 1.24 2.478.917 1.477 2.545 3.02 3.924 4.062.715.54 1.278 1.474 2.203 1.79v-.069h-.069c-.179-.28-.46-.395-.688-.62a15.778 15.778 0 0 1-1.584-1.79c-1.254-1.703-2.363-3.567-3.373-5.507-.482-.927-.902-1.95-1.308-2.892-.157-.364-.155-.913-.482-1.102-.445.691-1.101 1.25-1.446 2.066-.55 1.304-.622 2.894-.826 4.544-.12.043-.067.013-.138.068-.959-.23-1.296-1.218-1.652-2.065-.901-2.141-1.069-5.59-.276-8.055.205-.638 1.133-2.647.758-3.236-.18-.588-.77-.928-1.102-1.377a10.834 10.834 0 0 1-1.102-1.928c-.737-1.67-1.082-3.544-1.858-5.232-.371-.807-1-1.624-1.515-2.341-.57-.795-1.21-1.38-1.652-2.341-.158-.342-.371-.888-.138-1.24.074-.236.179-.335.413-.413.4-.307 1.512.103 1.928.276 1.104.458 2.025.895 2.96 1.514.45.298.903.874 1.446 1.033h.62c.969.223 2.055.07 2.96.344 1.6.487 3.035 1.244 4.337 2.066 3.969 2.506 7.213 6.072 9.433 10.327.357.685.511 1.34.826 2.066.634 1.465 1.434 2.973 2.065 4.406.63 1.43 1.244 2.873 2.134 4.062.469.626 2.277.961 3.099 1.308.576.244 1.52.498 2.065.826 1.042.63 2.052 1.378 3.03 2.066.488.344 1.99 1.1 2.065 1.721z" fill-rule="nonzero"/><path d="M24.894 23.617a4.926 4.926 0 0 0-1.24.137v.07h.07c.24.494.665.812.963 1.239l.689 1.445.069-.068c.426-.3.621-.782.62-1.515-.172-.18-.197-.405-.345-.62-.197-.286-.578-.448-.826-.688z"/></g></g></svg>