<svg width="800" height="800" viewBox="0 0 73 73" xmlns="http://www.w3.org/2000/svg"><g fill="none" fill-rule="evenodd"><rect x="-1" y="-1" width="71" height="71" rx="14" transform="translate(2 2)" fill="#FFF" fill-rule="nonzero" stroke="#87305C" stroke-width="2"/><path d="M36.5 10C51.132 10 63 21.868 63 36.5S51.132 63 36.5 63 10 51.132 10 36.5 21.868 10 36.5 10z" fill="#C69"/><path d="M53.132 21.373c-1.196-4.702-9.002-6.248-16.395-3.63-4.392 1.558-9.156 4.012-12.58 7.219-4.073 3.805-4.712 7.114-4.454 8.496.938 4.888 7.63 8.074 10.383 10.446v.01c-.814.402-6.743 3.403-8.135 6.475-1.464 3.238.237 5.568 1.36 5.878 3.486.969 7.064-.774 8.982-3.64 1.856-2.764 1.701-6.342.897-8.115 1.114-.289 2.413-.423 4.052-.237 4.65.546 5.558 3.444 5.383 4.66-.175 1.217-1.145 1.887-1.475 2.083-.33.207-.422.268-.402.423.041.217.186.206.464.165.382-.062 2.444-.99 2.527-3.227.113-2.846-2.62-6.033-7.445-5.95-1.99.03-3.238.227-4.145.557a4.107 4.107 0 0 0-.207-.227c-2.99-3.186-8.506-5.444-8.27-9.724.083-1.557.63-5.66 10.611-10.63 8.177-4.073 14.725-2.95 15.859-.465 1.619 3.548-3.496 10.147-11.992 11.106-3.238.36-4.94-.887-5.362-1.361-.443-.495-.516-.516-.68-.423-.269.155-.104.588 0 .845.257.66 1.288 1.825 3.072 2.413 1.557.516 5.362.794 9.95-.98 5.166-2.01 9.178-7.547 8.002-12.167zm-21.89 23.984c.38 1.423.34 2.754-.052 3.96a4.392 4.392 0 0 1-.145.392c-.051.134-.113.258-.175.392a7.34 7.34 0 0 1-1.227 1.783c-1.536 1.681-3.691 2.31-4.61 1.784-1-.577-.494-2.949 1.29-4.836 1.918-2.031 4.681-3.33 4.681-3.33v-.01c.072-.052.155-.093.237-.135z" fill="#FFF" fill-rule="nonzero"/></g></svg>